<svg xmlns="http://www.w3.org/2000/svg" xmlns:xlink="http://www.w3.org/1999/xlink" xmlns:svgjs="http://svgjs.com/svgjs" version="1.1" width="512" height="512" x="0" y="0" viewBox="0 0 512 511" style="enable-background:new 0 0 512 512" xml:space="preserve"><g><path xmlns="http://www.w3.org/2000/svg" d="m286.078125 74.566406c0 6.375-2.484375 12.371094-6.996094 16.882813-2.929687 2.929687-2.929687 7.679687 0 10.605469 1.464844 1.464843 3.386719 2.199218 5.304688 2.199218s3.839843-.734375 5.300781-2.199218c7.34375-7.34375 11.390625-17.105469 11.390625-27.488282 0-10.386718-4.046875-20.148437-11.390625-27.492187-4.507812-4.511719-6.992188-10.507813-6.992188-16.886719s2.484376-12.375 6.992188-16.882812c2.929688-2.929688 2.929688-7.679688 0-10.609376-2.925781-2.925781-7.675781-2.929687-10.605469 0-7.34375 7.34375-11.386719 17.105469-11.386719 27.492188s4.042969 20.148438 11.386719 27.492188c4.511719 4.511718 6.996094 10.507812 6.996094 16.886718zm-56.773437 0c0 6.375-2.484376 12.371094-6.992188 16.882813-2.929688 2.929687-2.929688 7.679687 0 10.605469 1.460938 1.464843 3.382812 2.199218 5.300781 2.199218s3.839844-.734375 5.304688-2.199218c7.34375-7.34375 11.386719-17.105469 11.386719-27.488282 0-10.386718-4.042969-20.148437-11.386719-27.492187-4.511719-4.511719-6.996094-10.507813-6.996094-16.886719s2.484375-12.375 6.996094-16.882812c2.929687-2.929688 2.929687-7.679688 0-10.609376-2.929688-2.925781-7.679688-2.929687-10.605469 0-7.34375 7.34375-11.390625 17.105469-11.390625 27.492188s4.046875 20.148438 11.390625 27.492188c4.507812 4.511718 6.992188 10.507812 6.992188 16.886718zm234.675781 170.097656c-12.207031-31.726562-38.527344-60.246093-74.605469-80.679687-38.316406-21.695313-84.433594-33.164063-133.375-33.164063-20.925781 0-41.46875 2.160157-61.105469 6.316407-.027343.003906-.054687.011719-.082031.015625-31.746094 6.726562-61.109375 18.679687-85.816406 35.230468-3.441406 2.304688-4.359375 6.964844-2.054688 10.40625 2.304688 3.441407 6.960938 4.359376 10.402344 2.058594 10.746094-7.199218 22.453125-13.46875 34.894531-18.757812v18.480468c0 14.234376 11.582031 25.816407 25.820313 25.816407 14.234375 0 25.816406-11.582031 25.816406-25.816407v-33.949218c8.605469-1.621094 17.394531-2.828125 26.304688-3.632813v37.582031c0 14.238282 11.582031 25.820313 25.816406 25.820313 14.238281 0 25.820312-11.582031 25.820312-25.820313v-37.613281c8.925782.796875 17.703125 2.011719 26.304688 3.621094v33.992187c0 14.234376 11.582031 25.816407 25.816406 25.816407 14.238281 0 25.820312-11.582031 25.820312-25.816407v-18.496093c7.671876 3.273437 15.097657 6.929687 22.222657 10.964843 30.410156 17.21875 53.148437 40.4375 65.125 66.21875-13.023438.300782-25.359375 3.667969-35.78125 9.804688-6.519531 3.835938-14.625 3.835938-21.144531 0-10.929688-6.433594-23.957032-9.832031-37.679688-9.832031-13.71875 0-26.75 3.398437-37.679688 9.832031-6.519531 3.835938-14.621093 3.835938-21.144531 0-10.929687-6.433594-23.957031-9.832031-37.679687-9.832031-13.71875 0-26.75 3.398437-37.679688 9.832031-6.519531 3.835938-14.621094 3.835938-21.140625 0-10.929687-6.433594-23.960937-9.832031-37.683593-9.832031-13.71875 0-26.75 3.398437-37.679688 9.832031-6.519531 3.835938-14.621094 3.835938-21.140625 0-10.429687-6.136719-22.765625-9.503906-35.792969-9.804688 6.085938-13.164062 14.914063-25.605468 26.367188-37.09375 2.925781-2.933593 2.917968-7.683593-.011719-10.605468-2.933594-2.925782-7.683594-2.917969-10.609375.015625-14.894531 14.9375-25.847656 31.433593-32.617188 49.089843-27.519531 5.328126-48.007812 24.96875-48.007812 48.332032 0 26.167968 25.710938 47.671875 58.21875 49.605468l12.898438 24.851563c.003906.003906.003906.007813.007812.015625l6.226562 11.992188c6.570313 12.660156 19.511719 20.519531 33.773438 20.519531h289.75c14.261719 0 27.203125-7.859375 33.773438-20.519531l6.222656-11.992188c.003906-.007812.007812-.011719.011718-.015625l12.894532-24.851563c32.511718-1.933593 58.222656-23.4375 58.222656-49.605468 0-23.363282-20.492188-43.007813-48.019531-48.332032zm-275.105469-60.09375c0 5.96875-4.851562 10.820313-10.816406 10.820313s-10.816406-4.855469-10.816406-10.820313v-24.253906c7.027343-2.433594 14.25-4.574218 21.632812-6.414062zm77.941406 0c0 5.96875-4.851562 10.820313-10.816406 10.820313s-10.816406-4.855469-10.816406-10.820313v-38.539062c3.589844-.136719 7.195312-.210938 10.816406-.210938 3.625 0 7.230469.074219 10.816406.207032zm77.941406 0c0 5.96875-4.851562 10.820313-10.816406 10.820313s-10.816406-4.855469-10.816406-10.820313v-30.730468c7.378906 1.839844 14.59375 3.988281 21.632812 6.4375zm84.964844 171.816407h-33.703125c-4.140625 0-7.5 3.359375-7.5 7.5 0 4.144531 3.359375 7.5 7.5 7.5h25.917969l-.601562 1.164062c-3.980469 7.667969-11.820313 12.429688-20.460938 12.429688h-289.75c-8.640625 0-16.480469-4.761719-20.460938-12.429688l-.601562-1.164062h269.753906c4.140625 0 7.5-3.355469 7.5-7.5 0-4.140625-3.359375-7.5-7.5-7.5h-277.539062l-7.523438-14.488281c9.359375-1.382813 18.171875-4.410157 25.921875-8.972657 6.519531-3.835937 14.621094-3.835937 21.140625 0 10.933594 6.433594 23.960938 9.832031 37.679688 9.832031 13.722656 0 26.75-3.398437 37.683594-9.832031 6.519531-3.835937 14.621093-3.835937 21.140624 0 10.933594 6.433594 23.960938 9.832031 37.679688 9.832031s26.75-3.398437 37.679688-9.832031c6.523437-3.835937 14.625-3.835937 21.144531 0 10.929687 6.433594 23.960937 9.832031 37.679687 9.832031s26.75-3.398437 37.679688-9.832031c6.519531-3.835937 14.625-3.835937 21.144531 0 7.75 4.5625 16.558594 7.589844 25.917969 8.972657zm19.339844-28.628907c-.03125 0-.058594 0-.089844 0-11.035156-.003906-21.421875-2.6875-30.039062-7.757812-5.609375-3.300781-11.894532-4.949219-18.179688-4.949219s-12.574218 1.652344-18.179687 4.949219c-8.628907 5.078125-19.027344 7.761719-30.070313 7.761719-11.046875 0-21.445312-2.683594-30.074218-7.761719-11.210938-6.597656-25.144532-6.597656-36.359376 0-8.625 5.078125-19.023437 7.761719-30.070312 7.761719s-21.445312-2.683594-30.070312-7.761719c-11.214844-6.597656-25.148438-6.597656-36.359376 0-8.628906 5.078125-19.023437 7.761719-30.074218 7.761719-11.042969 0-21.441406-2.683594-30.070313-7.761719-11.210937-6.597656-25.144531-6.597656-36.359375 0-8.617187 5.070312-19.007812 7.753906-30.046875 7.757812-.023437 0-.046875 0-.070312 0-26.445313-.015624-47.949219-15.605468-47.949219-34.761718 0-17.105469 17.144531-31.351563 39.636719-34.226563.039062-.003906.074219-.007812.113281-.015625 2.679688-.335937 5.433594-.523437 8.246094-.523437 11.046875 0 21.445312 2.683593 30.070312 7.761719 11.214844 6.597656 25.148438 6.597656 36.359375 0 8.625-5.078126 19.023438-7.761719 30.070313-7.761719 11.050781 0 21.449218 2.683593 30.074218 7.761719 11.210938 6.597656 25.144532 6.597656 36.359376 0 8.625-5.078126 19.023437-7.761719 30.070312-7.761719s21.445312 2.683593 30.070312 7.761719c11.214844 6.597656 25.144532 6.597656 36.359376 0 8.625-5.078126 19.023437-7.761719 30.074218-7.761719 11.046875 0 21.445313 2.683593 30.070313 7.761719 11.210937 6.597656 25.144531 6.597656 36.359375 0 8.625-5.078126 19.023437-7.761719 30.070312-7.761719 2.8125 0 5.566406.1875 8.246094.523437.035156.007813.074219.011719.109375.015625 22.496094 2.875 39.640625 17.121094 39.640625 34.226563 0 19.152344-21.496094 34.738281-47.9375 34.761718zm0 0" fill="#fff" data-original="#fff"/></g></svg>