<svg xmlns="http://www.w3.org/2000/svg" xmlns:xlink="http://www.w3.org/1999/xlink" xmlns:svgjs="http://svgjs.com/svgjs" version="1.1" width="512" height="512" x="0" y="0" viewBox="0 0 480.009 480.009" style="enable-background:new 0 0 512 512" xml:space="preserve"><g><g xmlns="http://www.w3.org/2000/svg"><path d="m445.987 65.108c-12.279-2.333-22.563-9.102-28.957-19.059-14.176-22.072-39.957-33.029-65.684-27.917-12.411 2.465-25.036-.046-35.554-7.072-21.383-14.285-49.02-14.285-70.404 0-10.518 7.028-23.143 9.537-35.553 7.072-25.215-5.014-50.755 5.561-65.045 26.942-7.029 10.519-17.733 17.67-30.14 20.14-25.223 5.02-44.764 24.561-49.783 49.783-2.47 12.406-9.621 23.11-20.14 30.14-21.381 14.291-31.957 39.822-26.942 65.045 2.467 12.408-.045 25.035-7.072 35.554-14.285 21.384-14.285 49.02 0 70.404 7.027 10.518 9.539 23.145 7.072 35.553-5 25.153 5.522 50.65 26.809 64.954 10.118 6.8 17.325 17.235 20.648 31.986 3.536 15.695 15.731 27.508 31.702 30.856 4.342.911 8.569-1.884 9.472-6.188.906-4.324-1.864-8.564-6.188-9.472-9.419-1.974-17.199-8.736-19.523-19.372-3.755-17.184-13.347-31.79-27.187-41.09-15.911-10.693-23.777-29.752-20.039-48.556 3.3-16.599-.061-33.489-9.461-47.56-10.679-15.986-10.679-36.645 0-52.629 9.4-14.071 12.761-30.962 9.461-47.561-3.749-18.855 4.156-37.94 20.14-48.623 14.07-9.403 23.638-23.723 26.94-40.319 3.753-18.854 18.36-33.462 37.215-37.215 16.597-3.303 30.916-12.87 40.319-26.94 10.682-15.982 29.77-23.887 48.623-20.14 16.601 3.301 33.49-.061 47.56-9.461 15.985-10.679 36.644-10.68 52.629 0 14.07 9.4 30.962 12.756 47.561 9.461 19.227-3.83 38.502 4.368 49.102 20.87 8.664 13.491 23.037 23.016 39.426 26.13 19.241 3.66 26.125 24.201 17.151 38.627l-20.719 33.308c-1.614 2.335-1.93 5.454-.566 8.159 54.336 107.784-204.088 356.959-294.662 266.38-114.025-114.021-53.697-266.721 58.757-323.437.442-.131.881-.29 1.308-.503 62.817-31.391 132.93-28.183 194.678 17.051 3.563 2.614 8.57 1.839 11.181-1.726 2.611-3.564 1.839-8.57-1.726-11.181-37.224-27.27-78.663-40.99-121.466-40.509v-13.67c0-4.418-3.582-8-8-8s-8 3.582-8 8v14.512c-21.87 2.04-44.257 7.711-66.621 17.728l-9.602-19.204c-1.975-3.951-6.781-5.554-10.733-3.577-3.951 1.976-5.553 6.781-3.577 10.733l9.548 19.096c-17.979 9.635-34.884 21.806-50.186 36.179l-15.498-15.498c-3.125-3.123-8.189-3.123-11.314 0-3.124 3.125-3.124 8.189 0 11.314l15.51 15.51c-14.308 15.314-26.356 32.098-36.059 50.24l-19.228-9.614c-3.95-1.975-8.758-.374-10.733 3.577-1.976 3.952-.374 8.758 3.577 10.733l19.343 9.672c-9.371 20.922-15.608 43.366-17.794 66.551h-14.585c-4.418 0-8 3.582-8 8s3.582 8 8 8h13.739c-.625 50.511 18.414 103.585 66.167 151.338 20.784 20.783 50.219 28.252 85.129 21.604 30.167-5.749 64.232-21.893 98.514-46.687 46.724-33.793 88.979-79.858 115.934-126.385 29.1-50.229 37.041-95.892 22.63-129.272l18.642-29.97c14.574-23.432 3.135-56.898-27.746-62.795z" fill="#fff" data-original="#000000"/><path d="m122.879 272.699c4.363.711 8.473-2.244 9.188-6.604 1.109-6.783 2.737-13.616 4.84-20.308 1.323-4.216-1.021-8.706-5.235-10.03-4.217-1.321-8.705 1.021-10.03 5.235-2.328 7.413-4.133 14.989-5.365 22.519-.714 4.361 2.242 8.474 6.602 9.188z" fill="#fff" data-original="#000000"/><path d="m115.133 305.115c4.068 36.921 21.184 70.693 50.869 100.38 1.563 1.562 3.609 2.343 5.657 2.343 7.065 0 10.711-8.602 5.657-13.657-27.049-27.049-42.62-57.604-46.279-90.817-.483-4.392-4.437-7.542-8.828-7.076-4.392.483-7.56 4.435-7.076 8.827z" fill="#fff" data-original="#000000"/></g></g></svg>