<svg xmlns="http://www.w3.org/2000/svg" xmlns:xlink="http://www.w3.org/1999/xlink" xmlns:svgjs="http://svgjs.com/svgjs" version="1.1" width="512" height="512" x="0" y="0" viewBox="0 0 512.158 512.158" style="enable-background:new 0 0 512 512" xml:space="preserve"><g><g xmlns="http://www.w3.org/2000/svg"><path d="m512 281.131c0-19.091-12.12-36.234-26.722-47.579-17.728-14.605-44.011-27.333-76.376-37.035l97.851-118.113c19.006-23.047-16.747-51.887-35.704-28.895l-112.122 135.336c-32.452-5.711-67.061-8.615-102.927-8.615-44.65 0-88.542 4.651-126.93 13.45-9.414 2.159-6.087 16.78 3.352 14.621 37.306-8.551 80.038-13.071 123.578-13.071 31.891 0 62.733 2.346 91.864 6.969l-4.812 5.808c-8.192 9.888-21.276 14.115-32.996 16.945-8.895 2.148-19.394 5.513-30.137 10.766-5.75-.153-11.57-.242-17.346-.242-87.877 0-167.465 17.418-214.446 46.75-7.609-4.866-17.713-10.513-17.713-20.836 0-4.722 2.074-9.145 5.69-12.137 12.365-10.229 29.404-19.46 50.643-27.438 9.057-3.401 3.782-17.446-5.273-14.042-32.674 12.272-81.474 36.083-81.474 77.358 0 15.381 7.593 30.105 22.022 43.461l64.641 117.468c13.681 24.583 35.565 43.065 61.624 52.039 34.73 11.959 71.221 17.939 107.712 17.939s72.982-5.979 107.713-17.939c26.059-8.974 47.944-27.455 61.625-52.039 4.703-8.454-8.404-15.748-13.107-7.294-11.879 21.348-30.845 37.382-53.402 45.15-66.308 22.834-139.346 22.834-205.655 0-22.558-7.768-41.522-23.802-53.401-45.15l-50.665-91.04c8.465 4.711 17.952 9.149 28.442 13.261 47.786 18.73 111.162 29.045 178.453 29.045s130.667-10.315 178.453-29.045c10.489-4.111 19.975-8.549 28.44-13.26l-26.748 48.065c-4.658 8.372 8.326 15.881 13.107 7.294l40.724-74.492c14.428-13.358 22.022-28.082 22.022-43.463zm-36.105-35.878c3.616 2.991 5.69 7.415 5.69 12.137s-2.074 9.146-5.69 12.137c-1.865 1.543-3.834 3.06-5.901 4.55-24.865-13.94-57.957-25.094-96.464-32.514 1.37-3.133 3.098-6.089 5.321-8.771l19.62-23.683c33.398 9.372 60.146 21.852 77.424 36.144zm-107.492 23.714c.205-4.302.536-8.644 1.172-12.887 33.719 6.412 62.99 15.705 85.791 27.204-24.549 13.615-57.993 24.391-96.374 31.356 5.458-13.768 8.617-29.068 9.411-45.673zm-54.826-33.434c14.116-3.41 30.03-8.684 41.025-21.957l128.009-154.511c6.636-8.054 19.307 1.626 12.58 9.782l-127.891 154.375c-10.939 13.205-13.136 29.446-13.879 45.029-.884 18.47-4.968 35.029-12.149 49.282-5.56.809-11.202 1.543-16.92 2.195 5.992-8.86 10.722-18.886 12.626-29.466 2.486-13.8-.639-25.107-8.799-31.837-15.792-13.024-44.696-3.175-65.806 22.42-9.839 11.929-17.804 26.911-18.97 42.568-4.848-.097-9.692-.25-14.501-.456-.074-.003-.148-.007-.223-.01 2.181-17.137 10.548-35.442 23.591-51.256 15.478-18.767 37.922-30.509 61.307-36.158zm-19.042 86.816c-11.892.744-23.809 1.137-35.724 1.19-1.064.005 4.639-16.3 5.279-17.709 4.806-10.583 12.649-19.987 21.718-27.21 7.293-5.808 23.458-16.35 32.827-8.623 3.736 3.082 5.042 9.499 3.582 17.606-2.308 12.809-9.826 24.737-18.616 34.112-3.02.234-6.043.447-9.066.634zm-37.999-75.833c-22.62 18.263-39.463 46.519-42.843 75.585-59.771-4.117-113.656-16.809-150.471-35.333 43.993-24.392 116.018-39.502 193.314-40.252zm172.443 96.504c-46.084 18.063-107.516 28.011-172.979 28.011s-126.895-9.948-172.979-28.011c-43.228-16.943-68.021-39.501-68.021-61.889 0-4.197.853-8.379 2.522-12.531 6.099 15.647 26.52 25.419 40.628 32.382 20.21 9.974 41.851 16.988 63.689 22.389 41.949 10.374 85.369 14.765 128.528 15.14 33.344.288 66.747-1.905 99.692-7.112 29.294-4.63 58.485-11.522 86.067-22.569 18.844-7.547 50.307-19.598 58.35-40.228 1.666 4.149 2.523 8.329 2.523 12.529.001 22.388-24.792 44.946-68.02 61.889z" fill="#fff" data-original="#fff"/><path d="m196.491 272.578c-.523-4.109-4.292-7.02-8.387-6.492-22.854 2.911-44.261 7.123-63.624 12.52-3.99 1.112-6.323 5.248-5.211 9.238.924 3.316 3.938 5.488 7.221 5.488.666 0 1.344-.09 2.018-.277 18.666-5.202 39.354-9.27 61.491-12.089 4.109-.523 7.016-4.279 6.492-8.388z" fill="#fff" data-original="#fff"/><path d="m179.454 128.616c-4.111 3.729-9.743 8.835-9.743 18.761 0 4.142 3.357 7.5 7.5 7.5s7.5-3.358 7.5-7.5c0-3.024 1.178-4.346 4.819-7.648 4.111-3.729 9.743-8.834 9.743-18.76s-5.632-15.032-9.743-18.76c-3.642-3.302-4.819-4.624-4.819-7.648 0-3.023 1.177-4.344 4.818-7.646 4.112-3.728 9.744-8.834 9.744-18.759 0-4.142-3.357-7.5-7.5-7.5s-7.5 3.358-7.5 7.5c0 3.023-1.177 4.345-4.818 7.646-4.112 3.728-9.744 8.834-9.744 18.759 0 9.926 5.632 15.032 9.743 18.76 3.642 3.302 4.819 4.624 4.819 7.648 0 3.023-1.177 4.345-4.819 7.647z" fill="#fff" data-original="#fff"/><path d="m322.47 128.616c-4.111 3.729-9.743 8.835-9.743 18.761 0 4.142 3.357 7.5 7.5 7.5s7.5-3.358 7.5-7.5c0-3.024 1.178-4.346 4.819-7.648 4.111-3.729 9.743-8.834 9.743-18.76s-5.632-15.032-9.743-18.76c-3.642-3.302-4.819-4.624-4.819-7.648 0-3.023 1.177-4.344 4.818-7.646 4.112-3.728 9.744-8.834 9.744-18.759 0-4.142-3.357-7.5-7.5-7.5s-7.5 3.358-7.5 7.5c0 3.023-1.177 4.345-4.818 7.646-4.112 3.728-9.744 8.834-9.744 18.759 0 9.926 5.632 15.032 9.743 18.76 3.642 3.302 4.819 4.624 4.819 7.648 0 3.023-1.178 4.345-4.819 7.647z" fill="#fff" data-original="#fff"/><path d="m250.962 68.082c-4.111 3.729-9.743 8.834-9.743 18.76 0 4.142 3.357 7.5 7.5 7.5s7.5-3.358 7.5-7.5c0-3.024 1.178-4.346 4.819-7.648 4.111-3.729 9.743-8.834 9.743-18.76s-5.632-15.032-9.743-18.76c-3.642-3.302-4.819-4.624-4.819-7.648 0-3.023 1.177-4.345 4.818-7.646 4.112-3.728 9.744-8.834 9.744-18.759 0-4.142-3.357-7.5-7.5-7.5s-7.5 3.358-7.5 7.5c0 3.023-1.177 4.344-4.818 7.646-4.112 3.728-9.744 8.834-9.744 18.759 0 9.926 5.632 15.032 9.743 18.76 3.642 3.302 4.819 4.624 4.819 7.648s-1.177 4.346-4.819 7.648z" fill="#fff" data-original="#fff"/></g></g></svg>