<svg xmlns="http://www.w3.org/2000/svg" xmlns:xlink="http://www.w3.org/1999/xlink" xmlns:svgjs="http://svgjs.com/svgjs" version="1.1" width="512" height="512" x="0" y="0" viewBox="0 0 16.933 16.933" style="enable-background:new 0 0 512 512" xml:space="preserve" class=""><g><path d="M.642 7.913a.863.863 0 0 0-.196.577c0 .227.063.433.191.59a.62.62 0 0 0 .557.224l2.517-.367c.07.08.183.11.284.076 0 0 .255-.087.564-.133.309-.046.651-.02.773.07.284.208.38.399.43.635.05.235.034.523.031.855-.001.281-.129.534-.351.787-.223.253-.538.494-.862.717-.324.223-.655.426-.921.637-.267.21-.512.434-.51.777.002.435.185.806.517 1.018.333.211.77.285 1.322.302.62.02 1.022-.306 1.315-.578.084-.078.159-.147.231-.21v1.822c0 .389.321.71.71.71h.18a.713.713 0 0 0 .708-.71v-1.108c.09.046.194.075.306.074.09 0 .172-.023.248-.054v1.088c0 .389.321.71.71.71h.18a.713.713 0 0 0 .708-.71v-1.875c.085.068.172.144.27.234.299.271.693.607 1.304.607 1.133 0 1.86-.632 1.873-1.318.003-.178-.088-.29-.178-.389a2.42 2.42 0 0 0-.326-.283c-.254-.192-.574-.403-.893-.64-.637-.476-1.22-1.052-1.25-1.622-.019-.344-.05-.611-.011-.83s.128-.407.417-.658c.108-.093.444-.13.758-.088.315.043.582.13.582.13a.264.264 0 0 0 .246-.041l2.49.365.02.002a.65.65 0 0 0 .536-.231.898.898 0 0 0 .191-.585c0-.227-.07-.43-.198-.573a.783.783 0 0 0-.472-.242l-2.396-.351a.556.556 0 0 0-.157-.341c-.136-.14-.225-.126-.35-.15-.533-.087-1.12-.1-1.615-.11a43.669 43.669 0 0 0-1.372-.006l-.087-.55a2.396 2.396 0 0 0 1.166-2.051 2.398 2.398 0 0 0-1.668-2.28.849.849 0 0 0 .135-.457.863.863 0 0 0-.86-.859.865.865 0 0 0-.86.86c0 .167.05.323.136.456a2.399 2.399 0 0 0-1.67 2.28c0 .863.463 1.62 1.152 2.042l-.083.563a32.17 32.17 0 0 0-1.368-.015 10.69 10.69 0 0 0-1.666.117c-.13.03-.238.044-.359.17a.529.529 0 0 0-.155.325l-2.44.356a.72.72 0 0 0-.484.239zM8.44 1.049c.186 0 .33.145.33.33 0 .186-.144.33-.33.33a.328.328 0 0 1-.332-.33c0-.185.146-.33.332-.33zm0 1.204c.64 0 1.2.319 1.536.806a4.789 4.789 0 0 0-1.558-.266 4.414 4.414 0 0 0-1.529.286 1.86 1.86 0 0 1 1.55-.826zm-.02 1.07a4.12 4.12 0 0 1 1.848.43A1.86 1.86 0 0 1 8.44 5.981 1.863 1.863 0 0 1 6.605 3.79a3.71 3.71 0 0 1 1.815-.466zm1.227.635-.268.002c-.36-.006-.357.54.004.529l.268-.002c.36.006.357-.54-.004-.53zm-2.385.008c-.353.002-.35.532.004.53l.27-.003c.353-.003.348-.532-.005-.53zM8.32 5.018c-.353.003-.349.533.005.53l.269-.004c.352.017.396-.522.01-.528zm-.622 1.373a2.377 2.377 0 0 0 1.468.006l.08.504c-.082.117-.415.553-.845.54-.493-.017-.755-.505-.777-.547zm.685 1.576c.75.025 1.132-.528 1.252-.718.105-.002.726-.011 1.479.004.533.012 1.014.028 1.525.1.09.012.095.07.098.18.002.11.006.313-.007.486-.014.202-.027.264-.044.39-.125-.033-.166-.054-.367-.082-.371-.05-.833-.085-1.174.211-.315.273-.485.562-.562.85h-4.33a1.574 1.574 0 0 0-.608-.865c-.353-.26-.802-.22-1.164-.166-.19.028-.224.047-.344.08a4.96 4.96 0 0 1-.059-.902c.002-.143.05-.176.12-.196.511-.09 1.082-.099 1.554-.104.761-.007 1.385.016 1.493.02.114.2.429.69 1.138.713zm-4.834-.112c.005.19.03.389.05.563l-2.482.362c-.091.02-.13-.176-.141-.29-.006-.204.027-.248.208-.29zm12.017.345c.076.01.123.036.156.072.032.035.062.091.062.218 0 .128-.036.208-.068.246-.032.038-.051.045-.09.042l-2.406-.353c.028-.204.038-.374.047-.563zm-5.041 1.717c.003.178.02.354.03.535H6.322v-.008c.002-.171.009-.347.004-.527zm-4.311 1.065h4.46c.243.615.817 1.096 1.344 1.49.334.249.659.464.889.638.116.07.211.166.29.266-.06.285-.425.773-1.337.773-.426 0-.659-.206-.95-.47-.29-.265-.646-.604-1.195-.586a.904.904 0 0 0-.58.242c-.143.13-.239.28-.324.414a2.36 2.36 0 0 1-.227.318c-.064.067-.093.082-.15.082-.057 0-.085-.012-.15-.082-.066-.07-.141-.192-.23-.33s-.187-.293-.337-.424-.366-.227-.611-.22c-.548.014-.885.361-1.164.62-.28.26-.495.45-.938.436-.51-.016-.862-.096-1.054-.218-.193-.123-.27-.263-.272-.576 0-.031.08-.178.308-.358.228-.18.556-.386.893-.617.337-.232.684-.491.959-.803.156-.177.288-.376.376-.595zm1.156 2.732c.068.057.152.174.233.3v1.699c0 .104-.076.18-.18.18h-.18a.174.174 0 0 1-.18-.18v-2.088c.117-.028.238.031.307.089zm2.384 1.999c0 .104-.075.18-.179.18h-.18a.174.174 0 0 1-.18-.18v-1.616c.079-.133.244-.339.277-.371a.337.337 0 0 1 .252-.105z" paint-order="stroke fill markers" fill="#fff" data-original="#fff" class=""/></g></svg>