<svg xmlns="http://www.w3.org/2000/svg" xmlns:xlink="http://www.w3.org/1999/xlink" xmlns:svgjs="http://svgjs.com/svgjs" version="1.1" width="512" height="512" x="0" y="0" viewBox="0 0 512 512" style="enable-background:new 0 0 512 512" xml:space="preserve"><g><g xmlns="http://www.w3.org/2000/svg"><path d="m322.829 286.827c0-31.388-26.004-57.315-59.343-60.736v-15.119c0-4.142-3.357-7.5-7.5-7.5s-7.5 3.358-7.5 7.5v15.119c-33.338 3.421-59.344 29.348-59.344 60.736 0 33.708 29.986 61.132 66.844 61.132s66.843-27.424 66.843-61.132zm-100.353-35.159c9.045-6.836 20.742-10.973 33.511-10.973 12.768 0 24.465 4.137 33.51 10.973-9.49 2.315-21.262 3.621-33.51 3.621s-24.021-1.305-33.511-3.621zm-18.333 35.159c0-8.326 2.504-16.136 6.858-22.886 11.943 4.061 27.917 6.348 44.985 6.348 17.067 0 33.042-2.287 44.984-6.348 4.354 6.75 6.858 14.56 6.858 22.886 0 25.437-23.257 46.132-51.843 46.132-28.586-.001-51.842-20.695-51.842-46.132z" fill="#fff" data-original="#fff"/><path d="m302.708 378.273c0-4.142-3.357-7.5-7.5-7.5h-78.444c-4.143 0-7.5 3.358-7.5 7.5s3.357 7.5 7.5 7.5h78.444c4.143 0 7.5-3.358 7.5-7.5z" fill="#fff" data-original="#fff"/><path d="m398.95 406.808c-1.405-3.094-2.998-6.6-4.827-10.947-24.802-58.979-24.369-160.057 1.027-240.335 6.345-20.006 3.101-40.886-8.902-57.284-12.838-17.54-34.434-28.163-58.014-28.628v-43.944c0-14.154-11.502-25.67-25.64-25.67h-96.812c-14.138 0-25.64 11.516-25.64 25.67v44.087c-22.402 1.376-42.021 11.575-54.394 28.468-12.009 16.396-15.264 37.279-8.93 57.297 25.414 80.245 25.847 181.321 1.029 240.336-1.819 4.324-3.403 7.815-4.801 10.896-6.046 13.327-8.549 18.843-8.549 42.697v29.792c0 18.062 14.282 32.757 31.837 32.757h239.326c17.555 0 31.837-14.695 31.837-32.757v-29.792c.003-23.823-2.5-29.332-8.547-42.643zm-203.806-381.138c0-5.883 4.772-10.67 10.64-10.67h8.998v27.31c0 4.142 3.357 7.5 7.5 7.5s7.5-3.358 7.5-7.5v-27.31h16.922v27.31c0 4.142 3.357 7.5 7.5 7.5s7.5-3.358 7.5-7.5v-27.31h16.893v27.31c0 4.142 3.357 7.5 7.5 7.5s7.5-3.358 7.5-7.5v-27.31h8.999c5.867 0 10.64 4.787 10.64 10.67v43.921h-118.092zm-57.293 81.418c10.472-14.297 27.796-22.497 47.529-22.497h141.24c19.731 0 37.054 8.205 47.524 22.51 2.405 3.286 4.336 6.77 5.807 10.396h-247.917c1.473-3.632 3.407-7.12 5.817-10.409zm254.649 372.155c0 9.791-7.553 17.757-16.837 17.757h-239.326c-9.284 0-16.837-7.966-16.837-17.757v-29.792c0-10.745.456-16.887 1.676-22.037h117.35c4.143 0 7.5-3.358 7.5-7.5s-3.357-7.5-7.5-7.5h-111.573c1.378-3.039 2.928-6.474 4.724-10.739 12.784-30.401 19.718-72.322 19.525-118.04-.135-31.907-3.735-64.727-10.311-95.438h97.634c4.143 0 7.5-3.358 7.5-7.5s-3.357-7.5-7.5-7.5h-101.121c-1.913-7.583-4.004-15.005-6.283-22.202-1.973-6.234-2.759-12.459-2.427-18.499h254.592c.331 6.04-.459 12.264-2.436 18.499-2.277 7.197-4.366 14.619-6.277 22.202h-100.674c-4.143 0-7.5 3.358-7.5 7.5s3.357 7.5 7.5 7.5h97.19c-6.572 30.716-10.171 63.535-10.309 95.437-.196 45.725 6.734 87.646 19.516 118.043 1.795 4.263 3.347 7.698 4.726 10.737h-111.944c-4.143 0-7.5 3.358-7.5 7.5s3.357 7.5 7.5 7.5h117.738c1.226 5.149 1.684 11.285 1.684 22.037z" fill="#fff" data-original="#fff"/></g></g></svg>