<svg xmlns="http://www.w3.org/2000/svg" xmlns:xlink="http://www.w3.org/1999/xlink" xmlns:svgjs="http://svgjs.com/svgjs" version="1.1" width="512" height="512" x="0" y="0" viewBox="0 0 511.901 511.901" style="enable-background:new 0 0 512 512" xml:space="preserve" class=""><g><g xmlns="http://www.w3.org/2000/svg"><path d="m506.213 284.666c-6.694-8.012-17.461-10.655-26.794-7.445-20.947-28.294-46.596-52.271-76.383-71.29-3.49-2.228-8.127-1.207-10.357 2.285-2.229 3.491-1.206 8.128 2.285 10.357 27.839 17.776 51.871 40.115 71.571 66.442-9.145 4.819-20.269 4.502-29.269-1.252-22.963-14.685-52.4-16.292-76.824-4.194l-23.192 11.486c-8.655 4.287-18.847 4.018-27.266-.717l-15.691-8.827c-23.646-13.302-53.023-13.302-76.668 0l-15.692 8.827c-8.419 4.735-18.612 5.003-27.265.717l-23.192-11.486c-4.75-2.353-9.798-4.227-15.006-5.572-4.008-1.037-8.101 1.375-9.137 5.387-1.036 4.011 1.376 8.101 5.387 9.137 4.206 1.086 8.276 2.597 12.099 4.49l23.192 11.486c13.104 6.49 28.533 6.083 41.277-1.085l15.692-8.827c19.109-10.75 42.851-10.748 61.96 0l15.691 8.827c12.745 7.17 28.176 7.575 41.277 1.085l23.192-11.486c19.738-9.775 43.528-8.478 62.086 3.39 16.319 10.434 37.271 9.101 52.135-3.316 4.021-3.358 10.024-2.82 13.383 1.199 3.359 4.02 2.82 10.023-1.2 13.381-11.392 9.517-25.768 14.759-40.481 14.76-12.041.001-23.823-3.463-34.073-10.018-12.976-8.298-29.613-9.207-43.417-2.371l-23.192 11.486c-18.736 9.278-40.801 8.699-59.024-1.551l-15.692-8.827c-13.361-7.517-29.964-7.518-43.33 0l-15.692 8.827c-9.446 5.313-20.159 8.122-30.98 8.122-9.667 0-19.364-2.271-28.044-6.57l-23.192-11.487c-13.805-6.836-30.441-5.928-43.417 2.371-23.336 14.922-53.297 13.016-74.555-4.743-4.02-3.358-4.559-9.361-1.2-13.381 1.627-1.947 3.915-3.145 6.442-3.372 2.528-.223 4.992.545 6.939 2.172 14.864 12.417 35.816 13.75 52.137 3.316 6.511-4.163 13.707-7.063 21.389-8.619 4.06-.822 6.684-4.78 5.862-8.839-.822-4.06-4.774-6.685-8.839-5.862-9.502 1.924-18.416 5.519-26.491 10.682-8.768 5.605-19.558 6.068-28.563 1.636 39.326-52.732 96.017-89.354 160.483-103.443l1.603-.35c8.718 17.59 26.857 29.717 47.784 29.717 21.005 0 39.205-12.216 47.885-29.913l2.502.547c21.216 4.636 41.903 11.836 61.486 21.398 1.06.518 2.181.762 3.286.762 2.776 0 5.444-1.548 6.745-4.21 1.818-3.722.274-8.213-3.448-10.03-20.658-10.087-42.482-17.683-64.866-22.574l-1.07-.234c.506-2.943.784-5.963.784-9.049 0-25.861-18.515-47.471-42.984-52.291 3.938-7.385 10.347-13.372 18.455-16.723l8.425-3.482c3.828-1.582 5.649-5.968 4.066-9.796-1.583-3.829-5.971-5.649-9.796-4.066l-8.425 3.482c-13.661 5.646-23.925 16.592-28.845 29.895-26.672 2.901-47.502 25.551-47.502 52.981 0 3.159.292 6.249.822 9.259l-.107.023c-68.45 14.959-128.604 53.979-170.12 110.182-3.44-1.319-7.16-1.85-10.939-1.51-6.518.584-12.418 3.672-16.614 8.694-4.196 5.022-6.185 11.377-5.601 17.896.584 6.518 3.672 12.418 8.694 16.614 2.378 1.987 4.847 3.807 7.387 5.472l19.588 62.311c10.126 32.211 39.615 53.853 73.38 53.853h294.616c33.765 0 63.254-21.642 73.38-53.853l19.861-63.178c2.102-1.434 4.148-2.962 6.114-4.605 10.367-8.661 11.755-24.143 3.093-34.51zm-259.231-163.878c-.034.77-.056 1.542-.056 2.318v11.752c0 4.142 3.358 7.5 7.5 7.5s7.5-3.358 7.5-7.5v-11.752c0-.975.042-1.942.116-2.902 18.238 2.925 32.218 18.765 32.218 37.814 0 21.121-17.183 38.303-38.303 38.303s-38.303-17.183-38.303-38.303c0-18.029 12.525-33.179 29.328-37.23zm92.775 220.76-11.896 84.265h-34.902l4.322-87.539c8.706 3.208 17.853 4.821 27.011 4.821 5.178-.001 10.359-.516 15.465-1.547zm-98.111-17.33c8.828-4.966 19.794-4.965 28.621 0l12.347 6.945-4.673 94.649h-42.968l-4.701-95.197zm-54.025 18.875c9.576 0 19.08-1.787 27.993-5.203l4.341 87.922h-34.902l-11.871-84.084c4.763.898 9.603 1.365 14.439 1.365zm-57.895-19.615 23.192 11.487c1.459.723 2.944 1.395 4.447 2.024l12.54 88.823h-45.077l-22.942-101.266c8.443-5.002 19.014-5.439 27.84-1.068zm-79.647 58.983-15.374-48.905c17.317 5.671 36.218 5.125 53.424-1.848l21.319 94.103h-.299c-27.18.001-50.919-17.42-59.07-43.35zm412.756 0c-8.151 25.93-31.89 43.351-59.07 43.351h-.299l5.614-24.783c.916-4.04-1.618-8.057-5.657-8.972-4.042-.915-8.057 1.618-8.972 5.657l-6.365 28.098h-45.076l12.604-89.281c1.135-.497 2.264-1.014 3.382-1.568l23.192-11.486c9.117-4.515 20.106-3.917 28.679 1.566.014.009.029.017.043.026l-9.394 41.466c-.916 4.04 1.618 8.057 5.657 8.972.558.126 1.115.187 1.664.187 3.426 0 6.519-2.362 7.308-5.844l8.558-37.776c9.008 3.517 18.591 5.351 28.32 5.35 8.654-.001 17.206-1.48 25.315-4.275z" fill="#fff" data-original="#fff"/><path d="m248.926 233.222v15.088c0 4.142 3.358 7.5 7.5 7.5s7.5-3.358 7.5-7.5v-15.088c0-4.142-3.358-7.5-7.5-7.5s-7.5 3.358-7.5 7.5z" fill="#fff" data-original="#fff"/><path d="m186.411 230.295-8.583 12.409c-2.356 3.407-1.504 8.078 1.902 10.435 1.302.9 2.788 1.332 4.259 1.332 2.379 0 4.719-1.129 6.175-3.234l8.583-12.409c2.356-3.407 1.504-8.078-1.902-10.435-3.407-2.358-8.078-1.505-10.434 1.902z" fill="#fff" data-original="#fff"/><path d="m312.007 228.393c-3.407 2.356-4.258 7.028-1.902 10.435l8.583 12.409c1.456 2.105 3.796 3.234 6.175 3.234 1.471 0 2.958-.432 4.259-1.332 3.407-2.356 4.258-7.028 1.902-10.435l-8.583-12.409c-2.356-3.407-7.028-4.26-10.434-1.902z" fill="#fff" data-original="#fff"/></g></g></svg>