<svg xmlns="http://www.w3.org/2000/svg" xmlns:xlink="http://www.w3.org/1999/xlink" xmlns:svgjs="http://svgjs.com/svgjs" version="1.1" width="512" height="512" x="0" y="0" viewBox="0 0 128 128" style="enable-background:new 0 0 512 512" xml:space="preserve" class=""><g><path xmlns="http://www.w3.org/2000/svg" d="M3.288,49.627,7.862,60.012a4.129,4.129,0,0,0-2.9,3.925v2.482a4.129,4.129,0,0,0,3.789,4.1,56.532,56.532,0,0,0,27.411,46.828v4.261a4.056,4.056,0,0,0,.064.637H24.521a1.75,1.75,0,0,0,0,3.5h85.156a1.75,1.75,0,0,0,0-3.5H94.483a4.056,4.056,0,0,0,.064-.637v-4.261a56.529,56.529,0,0,0,27.42-46.824,4.106,4.106,0,0,0,3.78-4.106V63.937A4.142,4.142,0,0,0,121.61,59.8h-.955a15.938,15.938,0,0,0-1.306-1.57,11.772,11.772,0,0,0,.871-15.568,9.038,9.038,0,0,0-5.373-13.824,6.392,6.392,0,0,0-11.362-4.361A9.041,9.041,0,0,0,96,23.961,32.248,32.248,0,0,0,93.194,9.185,4.465,4.465,0,0,0,86.923,7.19L62.651,21.033l-9.5,5.41A23.508,23.508,0,0,0,47.8,13.252,23.237,23.237,0,0,0,34.956,5.026,15.324,15.324,0,0,0,21.713,7.779a15.033,15.033,0,0,0-5.332,10.269,22.7,22.7,0,0,0,5.3,16.381,25.269,25.269,0,0,0,4.36,4.225,9.826,9.826,0,0,0-.827.552,12.227,12.227,0,0,0-8.985-6.477L12.575,21.144a4.144,4.144,0,0,0-5.2-2.7l-2.019.649A4.14,4.14,0,0,0,2.8,24.722L7.34,34.865A12.161,12.161,0,0,0,3.288,49.627ZM91.047,121.61a.637.637,0,0,1-.636.637H40.3a.637.637,0,0,1-.636-.637v-3.488h51.38Zm1.259-6.988h-53.9A52.953,52.953,0,0,1,18.755,94.339H111.96A52.915,52.915,0,0,1,92.306,114.622ZM113.7,90.839H17.016a47.525,47.525,0,0,1-3.249-9.353H116.939A47.942,47.942,0,0,1,113.7,90.839ZM117.7,77.986H13.019a52.514,52.514,0,0,1-.777-7.43H118.471A52.635,52.635,0,0,1,117.7,77.986ZM121.61,63.3a.645.645,0,0,1,.637.637v2.482a.639.639,0,0,1-.637.637H9.1a.645.645,0,0,1-.637-.637V63.937A.645.645,0,0,1,9.1,63.3ZM32.391,39.97a1.77,1.77,0,0,0,0-1.759l0-.006a3.251,3.251,0,0,1,.118-2.409,11.694,11.694,0,0,0,6.949,1.63,2.88,2.88,0,0,0,1.809-.576,5.99,5.99,0,0,1,7.417-.484,6.079,6.079,0,0,1,2.578,5.211,1.748,1.748,0,0,0,1.693,1.829,8.95,8.95,0,0,1,8.6,9.759,7.749,7.749,0,0,1-.192,1.16,1.751,1.751,0,0,0,1.806,2.182,13.356,13.356,0,0,1,2.8.135,16.689,16.689,0,0,0-.186,3.158H57.544c.026-.135.062-.27.085-.4a1.75,1.75,0,1,0-3.447-.608c-.059.335-.133.674-.215,1.012h-6.19l-1.071-2.791L50.1,49.846a1.75,1.75,0,0,0-3.164-1.5l-1.962,4.143-2.29-5.972a1.75,1.75,0,0,0-3.268,1.255L41.7,53.731l-4.21-1.759A1.75,1.75,0,0,0,36.141,55.2l7.292,3.047.595,1.552H29.788l-3.379-17a5.905,5.905,0,0,1,4.473-1.945A1.752,1.752,0,0,0,32.391,39.97Zm-.969-20.211c3.1-2.506,7.841-.826,10.414,2.343,2.365,2.92,3.243,7.381.7,10.113a9.628,9.628,0,0,0-3.23,1.7,8.772,8.772,0,0,1-7.737-3.494C28.668,26.837,28.6,22.052,31.422,19.759Zm62.247,12.9a5.523,5.523,0,0,1,9.21-4.347,1.756,1.756,0,0,0,2.9-.868,2.873,2.873,0,0,1,3.725-1.658,2.843,2.843,0,0,1,1.643,3.773,1.749,1.749,0,0,0,1.587,2.537,5.525,5.525,0,0,1,3.941,9.388,1.748,1.748,0,0,0,.028,2.5,8.273,8.273,0,0,1-1,12.765,1.75,1.75,0,0,0-.082,2.814c.1.078.2.157.294.238H104.014a26.108,26.108,0,0,0,5.563-3.234,1.75,1.75,0,1,0-2.172-2.744,28.759,28.759,0,0,1-8.362,4.144l4.017-10.48,7.292-3.047a1.75,1.75,0,1,0-1.35-3.23l-4.211,1.76,2.284-5.959a1.75,1.75,0,0,0-3.268-1.255l-2.289,5.972-1.961-4.141a1.75,1.75,0,1,0-3.163,1.5l3.392,7.163L95.768,56.732a28.727,28.727,0,0,1-3.459-8.7,1.75,1.75,0,1,0-3.45.587c.731,4.3,3.165,8.757,4.655,11.182H84.391a24.434,24.434,0,0,1-1.576-2.42,1.75,1.75,0,1,0-3.055,1.706c.133.239.293.476.437.714H69.283a12.425,12.425,0,0,1,1.282-6.173,12.248,12.248,0,0,1,11.8-6.822,1.752,1.752,0,0,0,1.815-2.155,8.3,8.3,0,0,1,7.8-10.158A1.751,1.751,0,0,0,93.669,32.658ZM88.646,10.236A.968.968,0,0,1,90,10.623a28.84,28.84,0,0,1,2.259,16,9.143,9.143,0,0,0-2.014,4.541,11.811,11.811,0,0,0-9.776,12.157A15.772,15.772,0,0,0,66.9,53.24a17.444,17.444,0,0,0-1.834-.224,12.593,12.593,0,0,0-3.033-8.838,21.87,21.87,0,0,0,12.22-2.791l0,0a21.7,21.7,0,0,0,8.9-28.016ZM80.1,15.114a17.534,17.534,0,0,1,1.586,7.55L69.127,21.37Zm1.223,11.031A18.173,18.173,0,0,1,74,37.4L66.724,24.642Zm-17.419.622,7.048,12.366a18.207,18.207,0,0,1-11.718,1.072Zm-3.571-.388L55.927,39.068a16.509,16.509,0,0,1-1.7-.893,9.453,9.453,0,0,0-4.96-5.487ZM24.4,32.225a19.193,19.193,0,0,1-4.538-13.813A11.413,11.413,0,0,1,23.917,10.5,11.938,11.938,0,0,1,34.2,8.443a19.736,19.736,0,0,1,10.88,7.013,19.436,19.436,0,0,1,4.593,12.968L47.422,29.71A12.863,12.863,0,0,0,44.555,19.9c-4.129-5.081-11.009-6.363-15.338-2.855s-4.482,10.5-.36,15.59q.408.5.86.963a7.241,7.241,0,0,0-.958,2.715A21.628,21.628,0,0,1,24.4,32.225ZM6,23.3a.639.639,0,0,1,.4-.874l2.03-.653a.646.646,0,0,1,.8.42l3.322,10.53a13.341,13.341,0,0,0-2.107.523ZM11.8,36.49a8.649,8.649,0,0,1,10.84,5.616C23,43.23,23.065,44.1,26.22,59.8H11.593l-.424-.962,2.483-.783A1.75,1.75,0,0,0,12.6,54.717l-2.849.9-2-4.549,6.028-1.9a1.75,1.75,0,0,0-1.053-3.338L6.346,47.839A8.643,8.643,0,0,1,11.8,36.49Z" fill="#fff" data-original="#fff"/></g></svg>