<svg xmlns="http://www.w3.org/2000/svg" xmlns:xlink="http://www.w3.org/1999/xlink" xmlns:svgjs="http://svgjs.com/svgjs" version="1.1" width="512" height="512" x="0" y="0" viewBox="0 0 60 60" style="enable-background:new 0 0 512 512" xml:space="preserve"><g><path xmlns="http://www.w3.org/2000/svg" d="M59.257,21.379h0l-.006-.01v0h0l-9.008-15a4.985,4.985,0,0,0-8.66,4.927L4.742,26.026A2,2,0,0,0,3,28V48.142A3.992,3.992,0,0,0,4,56H55a4,4,0,0,0,4-4V27.13h-.127A4.994,4.994,0,0,0,59.257,21.379ZM50.378,26H10.194L42.6,13.043ZM5,28H51V48H5Zm47.459-2.42a3.005,3.005,0,0,1,.969-4.131,2.993,2.993,0,0,1,4.122.971,3.005,3.005,0,0,1-.969,4.131,2.993,2.993,0,0,1-4.122-.971ZM44.419,6.45a2.99,2.99,0,0,1,4.115.958l6.992,11.641a4.9,4.9,0,0,0-5.138,3.084L43.45,10.581A3.005,3.005,0,0,1,44.419,6.45ZM55,54H4a2,2,0,0,1,0-4H52a1,1,0,0,0,1-1V28.574A4.905,4.905,0,0,0,55.014,29,4.94,4.94,0,0,0,57,28.583V52A2,2,0,0,1,55,54Z" fill="#fff" data-original="#fff"/><path xmlns="http://www.w3.org/2000/svg" d="M14,30H9.125a2,2,0,0,0-2,2v5a1,1,0,0,0,2,0V32H14a1,1,0,0,0,0-2Z" fill="#fff" data-original="#fff"/><path xmlns="http://www.w3.org/2000/svg" d="M8.125,40a1,1,0,0,0-1,1v1a1,1,0,0,0,2,0V41A1,1,0,0,0,8.125,40Z" fill="#fff" data-original="#fff"/><path xmlns="http://www.w3.org/2000/svg" d="M31,22.046a1.009,1.009,0,0,0,.378-.074L41.39,17.889a1,1,0,1,0-.756-1.852L30.623,20.12A1,1,0,0,0,31,22.046Z" fill="#fff" data-original="#fff"/><path xmlns="http://www.w3.org/2000/svg" d="M25.284,23.378a1,1,0,0,0,1.3.548l.79-.322a1,1,0,0,0-.756-1.852l-.79.322A1,1,0,0,0,25.284,23.378Z" fill="#fff" data-original="#fff"/></g></svg>