<svg xmlns="http://www.w3.org/2000/svg" xmlns:xlink="http://www.w3.org/1999/xlink" xmlns:svgjs="http://svgjs.com/svgjs" version="1.1" width="512" height="512" x="0" y="0" viewBox="0 0 512.001 512.001" style="enable-background:new 0 0 512 512" xml:space="preserve" class=""><g><g xmlns="http://www.w3.org/2000/svg"><path d="m486.449 140.229c-4.676-8.496-17.816-1.266-13.143 7.23 21.385 38.867 23.694 72.563 23.694 85.247 0 31.542-61.54 55.845-153.505 60.819-16.941-16.771-38.027-32.084-64.102-44.342-7.705-3.623-18.099-12.625-21.289-20.25-3.318-7.931-12.706-26.377-28.179-26.377-6 0-11.137 2.971-14.894 7.213-7.038-4.825-16.773-4.757-23.777.085-3.763-4.287-8.925-7.298-14.968-7.298-15.471 0-24.859 18.445-28.179 26.377-3.197 7.636-13.599 16.641-21.317 20.264-4.028-5.264-6.004-10.697-6.004-16.492 0-43.433 24.895-128.641 118.201-172.505 10.269-4.826 23.832-16.292 28.745-28.034 4.935-11.794 10.893-17.166 14.341-17.166 6.781 0 4.605 8.439 4.147 11.458-1.096 7.231-5.471 21.854-14.917 30.794-15.962 15.107-26.661 30.256-34.69 49.118-3.7 8.686 10.005 14.795 13.801 5.875 7.281-17.104 16.612-30.292 31.2-44.099 15.272-14.455 19.056-36.926 19.437-39.44 2.058-13.551 14.214-11.066 15.903 1.636 1.145 8.619 3.06 23.045 12.447 32.188 15.191 14.796 20.346 22.314 20.379 22.362 5.371 8.073 17.861-.239 12.486-8.311-.229-.346-5.829-8.658-22.4-24.798-5.666-5.519-7.154-16.723-8.043-23.416-.521-3.889-4.047-13.367 3.889-13.367 4.214 0 10.111 7.06 14.341 17.166 4.913 11.742 18.477 23.208 28.745 28.034 28.305 13.307 52.371 31.463 71.531 53.964 6.401 7.518 17.632-2.43 11.42-9.725-20.555-24.14-46.317-43.592-76.57-57.813-7.704-3.622-18.098-12.623-21.288-20.25-3.318-7.931-12.708-26.376-28.179-26.376-6.043 0-11.205 3.011-14.968 7.298-7.004-4.842-16.739-4.91-23.777-.085-3.757-4.242-8.894-7.213-14.894-7.213-5.154 0-18.219 2.57-28.179 26.377-3.19 7.626-13.584 16.627-21.288 20.249-100.11 47.062-126.82 139.109-126.82 186.079 0 8.264 2.515 16.088 7.476 23.36-88.989 48.683-113.262 134.421-113.262 179.196 0 16.725 10.526 40.281 60.674 57.523 8.83 3.032 13.989-11.053 4.877-14.186-18.879-6.49-50.551-20.752-50.551-43.337 0-42.654 24.016-125.594 113.254-170.101 13.562-6.753 27.559-15.783 33.692-30.437 4.229-10.107 10.127-17.167 14.341-17.167 7.936 0 4.409 9.478 3.889 13.367-.889 6.693-2.376 17.896-8.043 23.416-16.571 16.14-22.171 24.453-22.401 24.799-5.355 8.047 7.055 16.325 12.471 8.336.05-.074 5.204-7.594 20.396-22.389 9.068-8.831 11.022-21.999 12.681-33.914 1.827-13.175 13.9-11.568 15.67.091 6.419 41.46 36.246 44.26 53.039 83.539 3.714 8.728 17.594 3.03 13.801-5.875-9.218-21.652-23.979-36.707-37.093-49.118-9.446-8.94-13.821-23.563-14.917-30.794-.458-3.019-2.634-11.458 4.147-11.458 4.215 0 10.112 7.059 14.341 17.166 4.913 11.741 18.477 23.207 28.745 28.035 24.292 11.42 42.405 27.294 62.697 44.193 42.481 43.664 55.504 96.906 55.504 128.311.702 60.485-204.499 72.441-287.078 53.314-9.525-1.808-12.339 12.917-2.814 14.737 29.753 5.684 64.95 8.688 101.785 8.688 71.006-.563 198.865-11.489 203.108-76.738-.001-31.36-11.915-82.809-49.62-127.55 53.714-4.713 152.065-17.95 155.407-75.005-.002-29.259-9.314-62.965-25.553-92.478z" fill="#fff" data-original="#fff"/><path d="m370.26 97.694c-2.995 2.861-3.104 7.608-.242 10.604.425.444 42.558 44.983 50.3 90.842 1.583 9.38 16.419 7.149 14.791-2.496-8.5-50.349-52.381-96.756-54.245-98.707-2.863-2.997-7.61-3.105-10.604-.243z" fill="#fff" data-original="#fff"/><path d="m236.795 130.296c-3.733-1.789-8.214-.211-10.002 3.526-.35.73-8.6 18.023-10.998 28.443-2.116 9.19 12.413 12.94 14.617 3.365 1.682-7.306 7.725-20.764 9.91-25.332 1.788-3.736.209-8.214-3.527-10.002z" fill="#fff" data-original="#fff"/><path d="m141.74 300.25c-2.993-2.859-7.741-2.754-10.604.242-1.864 1.951-45.745 48.358-54.245 98.706-1.569 9.297 13.151 12.211 14.791 2.497 7.726-45.759 49.877-90.398 50.303-90.844 2.859-2.995 2.749-7.741-.245-10.601z" fill="#fff" data-original="#fff"/><path d="m293.694 374.006c4.345 0 8.308-4.872 7.315-9.185-2.398-10.42-10.649-27.713-10.999-28.444-4.189-8.746-17.715-2.268-13.529 6.478 2.187 4.569 8.229 18.026 9.911 25.332.799 3.47 3.886 5.819 7.302 5.819z" fill="#fff" data-original="#fff"/></g></g></svg>