<svg xmlns="http://www.w3.org/2000/svg" xmlns:xlink="http://www.w3.org/1999/xlink" xmlns:svgjs="http://svgjs.com/svgjs" version="1.1" width="512" height="512" x="0" y="0" viewBox="0 0 512 512" style="enable-background:new 0 0 512 512" xml:space="preserve" class=""><g><g xmlns="http://www.w3.org/2000/svg"><path d="m60.626 346.745c-13.167 10.402-22.387 25.48-25.961 42.461-.853 4.053 1.74 8.031 5.793 8.885.521.11 1.041.163 1.553.163 3.471 0 6.587-2.425 7.331-5.958 3.849-18.285 14.547-29.012 20.58-33.778 3.25-2.568 3.804-7.285 1.237-10.535-2.568-3.252-7.284-3.806-10.533-1.238z" fill="#fff" data-original="#fff" class=""/><g><path d="m258.725 358.371c4.115 4.983 10.081 7.559 16.096 7.559 4.681 0 9.392-1.562 13.277-4.765.004-.004.009-.008.014-.011l15.916-13.186c4.289-3.536 6.94-8.544 7.464-14.103.525-5.568-1.147-10.995-4.702-15.275l-11.572-13.971c-7.341-8.837-20.526-10.083-29.401-2.767l-15.929 13.198c-4.282 3.547-6.925 8.565-7.443 14.131-.518 5.557 1.152 10.971 4.7 15.243zm-1.346-27.799c.146-1.571.884-2.982 2.077-3.97l15.915-13.185c1.098-.904 2.43-1.345 3.754-1.345 1.699 0 3.387.726 4.55 2.125l11.571 13.971c.995 1.197 1.461 2.72 1.313 4.288-.147 1.559-.883 2.956-2.085 3.948l-15.922 13.191c-2.461 2.023-6.243 1.668-8.275-.792l-11.594-13.964c-.986-1.189-1.449-2.703-1.304-4.267z" fill="#fff" data-original="#fff" class=""/><path d="m252.309 222.082c.525-5.569-1.147-10.996-4.702-15.275l-11.572-13.971c-7.352-8.852-20.529-10.092-29.373-2.767l-15.915 13.186c-4.283 3.53-6.934 8.532-7.466 14.087-.533 5.564 1.124 10.991 4.681 15.298l11.579 13.947c4.115 4.984 10.082 7.561 16.097 7.561 4.681 0 9.391-1.562 13.277-4.765.004-.004.009-.008.014-.012l15.916-13.185c4.288-3.536 6.94-8.545 7.464-14.104zm-14.933-1.41c-.147 1.559-.883 2.956-2.085 3.949l-15.921 13.189c-2.46 2.026-6.244 1.67-8.276-.791l-11.58-13.948c-.991-1.199-1.453-2.726-1.303-4.298.15-1.562.887-2.961 2.09-3.954l15.928-13.197c1.063-.881 2.381-1.309 3.699-1.309 1.708 0 3.415.719 4.563 2.101l11.572 13.971c.995 1.197 1.461 2.719 1.313 4.287z" fill="#fff" data-original="#fff" class=""/><path d="m330.77 255.914 15.934-13.172c4.284-3.553 6.929-8.572 7.448-14.132.52-5.564-1.153-10.987-4.703-15.261l-11.572-13.971c-7.357-8.855-20.547-10.082-29.395-2.743l-15.939 13.176c-4.295 3.563-6.942 8.594-7.452 14.168-.509 5.554 1.169 10.96 4.702 15.191l11.576 14.005c4.127 4.967 10.089 7.534 16.092 7.534 4.698 0 9.421-1.572 13.309-4.795zm-17.852-12.312-11.588-14.019c-.982-1.177-1.445-2.681-1.302-4.236.144-1.574.887-2.991 2.081-3.981l15.939-13.176c1.097-.91 2.429-1.353 3.754-1.353 1.692 0 3.372.723 4.532 2.118l11.571 13.971c.994 1.195 1.46 2.718 1.313 4.287-.147 1.571-.889 2.985-2.08 3.972l-15.93 13.169c-.003.003-.006.005-.009.008-2.496 2.071-6.217 1.725-8.281-.76z" fill="#fff" data-original="#fff" class=""/><path d="m437.806 62.428h-11.676l1.143-31.315c.16-4.042-1.32-7.9-4.167-10.862-2.902-3.02-6.966-4.752-11.15-4.752h-331.432c-6.292 0-11.411 5.119-11.411 11.41v19.541c0 17.082 13.905 30.979 30.997 30.979h3.101l17.612 193.332c-12.003 9.321-18.978 21.582-22.225 29.545-12.592-13.106-15.053-27.562-7.292-43.006 1.86-3.702.368-8.21-3.333-10.07s-8.209-.367-10.068 3.333c-9.176 18.262-7.817 36.553 3.608 52.599-26.813 5.968-51.339 22.058-66.616 46.484-14.217 22.739-18.438 49.21-11.886 74.534 6.559 25.349 23.113 46.474 46.612 59.483 15.71 8.703 32.986 12.836 50.151 12.836 29.942-.001 59.538-12.582 79.854-35.432h191.88c12.138 0 22.012-9.87 22.012-22.002v-16.571c11.497-3.44 20.012-14.607 20.489-28.226l1.786-51.062c.145-4.139-3.094-7.613-7.233-7.758-4.133-.158-7.612 3.093-7.757 7.234l-1.786 51.061c-.292 8.328-6.001 14.852-12.998 14.852h-.539-181.528c1.561-11.839.851-23.926-2.214-35.764-6.194-23.928-21.29-44.08-42.715-57.19 11.661-7.117 21.934-19.219 29.433-35.071.267-.561.514-1.053.732-1.49 1.173-2.344 2.779-5.555 1.271-9.375-1.57-3.98-5.173-5.316-8.364-6.499-17.015-6.277-32.783-6.524-46.969-.754l-9.056-99.408h69.19c4.142 0 7.5-3.358 7.5-7.501s-3.358-7.501-7.5-7.501h-70.556l-7.178-78.795c-.352-3.863-3.591-6.82-7.469-6.82h-9.949c-8.821 0-15.998-7.168-15.998-15.977v-15.948h327.844c.142 0 .264.076.325.134l-4.285 117.408h-178.097c-4.142 0-7.5 3.358-7.5 7.501s3.358 7.501 7.5 7.501h177.549l-5.283 144.764c-.151 4.14 3.082 7.618 7.221 7.769.093.003.186.005.278.005 4.015 0 7.342-3.181 7.49-7.227l2.024-55.448h18.628c40.911 0 74.194-35.61 74.194-79.38v-31.719c0-43.772-33.283-79.382-74.194-79.382zm-237.098 361.171h177.813v15.468c0 3.86-3.146 7-7.013 7h-180.843c4.339-7.183 7.7-14.72 10.043-22.468zm-13.489-47.005c5.517 21.314 1.938 43.637-10.08 62.86-25.005 40.022-78.949 53.966-120.25 31.086-19.863-10.996-33.839-28.795-39.356-50.118-5.511-21.298-1.93-43.609 10.081-62.822 16.864-26.963 46.864-42.088 77.281-42.088 14.716 0 29.534 3.543 43 10.998 0 .001.001.001.001.001 19.84 10.979 33.806 28.765 39.323 50.083zm-50.851-98.153c10.931-5.948 23.541-6.684 37.515-2.202-8.316 16.496-20.28 27.779-32.583 30.784-8.611-3.197-17.52-5.177-26.486-6.007 3.955-7.329 11.079-16.875 21.554-22.575zm287.822-162.862h13.616c13.119 0 23.793 11.767 23.793 26.23v31.719c0 14.463-10.673 26.23-23.793 26.23h-16.688zm72.811 57.949c0 35.498-26.555 64.378-59.195 64.378h-18.08l.845-23.147h17.235c21.39 0 38.792-18.496 38.792-41.231v-31.719c0-22.735-17.402-41.231-38.792-41.231h-13.068l.845-23.147h12.223c32.64 0 59.195 28.88 59.195 64.378z" fill="#fff" data-original="#fff" class=""/></g></g></g></svg>