<svg xmlns="http://www.w3.org/2000/svg" xmlns:xlink="http://www.w3.org/1999/xlink" xmlns:svgjs="http://svgjs.com/svgjs" version="1.1" width="512" height="512" x="0" y="0" viewBox="0 0 480 480" style="enable-background:new 0 0 512 512" xml:space="preserve"><g><g xmlns="http://www.w3.org/2000/svg"><path d="m460.6 151.3c-15.1-32.5-46.1-78.5-107.7-112.7-30.9-17.2-67.8-17.2-98.7 0-60.6 33.7-91.7 78.7-107.2 111.8-7.1 2.1-13.9 5-20.4 8.6-164.5 91.6-155.3 295.4-49.2 295.4h196.7c35.4 0 62.7-23.8 73-63.7 9.2-35.5 3.8-79-14.9-119.3-15-32.4-45.8-78.2-107.2-112.4-19.4-10.8-39.4-14.7-57.8-12.9 16-29.3 44.5-65.5 94.9-93.5 26.4-14.7 56.7-14.7 83.1 0 96.8 53.8 131.5 150.6 115 214.3-8.6 33-29.6 51.9-57.8 51.9h-12.4c-4.4 0-8 3.6-8 8s3.6 8 8 8h12.4c35.5 0 62.9-23.9 73.3-63.9 9.2-35.6 3.7-79.2-15.1-119.6zm-243.4 21.6c96.5 53.7 131 150.2 114.5 213.8-8.5 32.9-29.5 51.7-57.5 51.7h-196.8c-28.1 0-49-18.8-57.5-51.6-16.5-63.6 18-160.1 114.5-213.9 6.4-3.5 13.2-6.3 20.2-8.1.1 0 .3-.1.5-.1 20.7-6.4 43.2-2.3 62.1 8.2z" fill="#fff" data-original="#fff"/><path d="m248 95.2-7 8c-2.9 3.3-2.6 8.4.8 11.3 3.3 2.9 8.4 2.6 11.3-.8l7-8c2.9-3.3 2.6-8.4-.8-11.3-3.3-2.9-8.4-2.6-11.3.8z" fill="#fff" data-original="#fff"/><path d="m276 132.2-7 8c-2.9 3.3-2.6 8.4.8 11.3 3.3 2.9 8.4 2.6 11.3-.8l7-8c2.9-3.3 2.6-8.4-.8-11.3-3.3-2.9-8.4-2.6-11.3.8z" fill="#fff" data-original="#fff"/><path d="m299 104.7 7-8c2.9-3.3 2.6-8.4-.8-11.3s-8.4-2.6-11.3.8l-7 8c-4.5 5.2-.8 13.3 6 13.3 2.3-.1 4.6-1 6.1-2.8z" fill="#fff" data-original="#fff"/><path d="m52.6 362.6c6.7 29.1 28.2 45.7 54.4 45.7h137.6c27.1 0 47.9-17.5 54.4-45.7 10.3-44.8-17-108.5-89.1-143.6-21.6-10.5-46.5-10.5-68.1 0-72.2 35-99.5 98.7-89.2 143.6zm150.3-129.3c64.6 31.4 89.4 86.9 80.5 125.6-4 17.6-14.4 28.9-29.2 32.3 1.8-4.5 2.9-9.4 3.2-14.7 1.6-27.8-18.5-66.8-52.5-101.8-16-16.4-42.4-16.5-58.3 0-23.7 24.4-41.5 52-48.8 75.7-1.3 4.2 1.1 8.7 5.3 10s8.7-1.1 10-5.3c6.5-21.3 22.9-46.5 44.9-69.2 9.7-10 25.7-10 35.4 0 30.4 31.3 49.3 66.6 48 89.7-.4 7-2.6 12.5-6.6 16.6-15.7 0-111.6 0-127.8 0-19.8 0-34-12.1-38.8-33.3-8.9-38.7 15.9-94.3 80.5-125.7 17-8.1 37.2-8.1 54.2.1z" fill="#fff" data-original="#fff"/></g></g></svg>