<svg xmlns="http://www.w3.org/2000/svg" xmlns:xlink="http://www.w3.org/1999/xlink" xmlns:svgjs="http://svgjs.com/svgjs" version="1.1" width="512" height="512" x="0" y="0" viewBox="0 0 55 55" style="enable-background:new 0 0 512 512" xml:space="preserve"><g><g xmlns="http://www.w3.org/2000/svg" id="_x33_5"><path d="m50.5 31.6971931h-2.0215454c-.5831299-4.5722656-2.5095215-8.1577148-5.0447388-9.6866455-.0089111-.0299683-.0077515-.0602417-.0177002-.09021-.1230469-.4125977-.0429688-.8886719.2167969-1.253418.5214844-.7514648.7119141-1.6743164.5322266-2.612793-.1816406-.8735352-.7216797-1.6416016-1.4941406-2.1132803-1.3798828-.8217773-3.0976563-.5922852-4.1757813.5615225-.3417969.3666992-.7763672.5561523-1.1884766.5361328-2.8095703-.1762695-5.3964844-1.4248037-7.2871094-3.5180655-3.0214844-3.3188477-5.6220703-5.175293-7.7304688-5.5180664-5.4238281-.8696289-10.5458984 2.7412109-11.3994141 8.0561514-.3205566 2.0076294.0090942 4.0343018.9138794 5.8245239-2.6501465 1.4449463-4.6800537 5.1019897-5.2810059 9.8141479h-2.0225218c-.5527344 0-1 .4477539-1 1 0 7.956543 5.7705078 14.4296875 12.8632813 14.4296875h22.2744141c7.0927734.0000002 12.8623046-6.4731443 12.8623046-14.4296873 0-.552246-.4472656-1-1-1zm-10.5419922-13.8305664c.3349609-.3598633.9794922-.6293945 1.6806641-.2133789.2871094.1757813.4990234.4770508.5644531.7915039.0957031.5019531-.0625.8657227-.2060547 1.0712891-.3651123.5117798-.5578003 1.1167603-.6046753 1.7401123-1.2563782-.1848717-2.4483757.1139069-3.5196533.7595825-.0848999-.0618896-.177002-.1068726-.2660522-.1589966-1.0167236-1.6026001-2.2410889-2.7792969-3.5827026-3.4378662 1.0126343.3301392 2.0681763.5473022 3.1566772.6157227 1.0107422.0688476 2.0273437-.3618164 2.7773437-1.1679688zm-27.09375-1.4921875c.6787109-4.225585 4.7685547-7.0937414 9.1064453-6.3979483 1.6025391.2607422 3.9365234 1.9975586 6.5673828 4.8876953 1.2546997 1.3895864 2.7763672 2.4520864 4.4529419 3.1664419-.508728-.1451416-1.0270996-.2323608-1.5545044-.2323608-1.4648438 0-2.8876953.5751953-4.1621094 1.6733398-1.274414-1.0981444-2.6992187-1.6733397-4.1689452-1.6733397-2.328125 0-4.5439453 1.4750977-6.1953125 4.0859375-.8203125-.4492188-1.6923828-.6826172-2.5673828-.6826172-.2089233 0-.4147339.0206299-.6196289.0460815-.8214722-1.479248-1.1275025-3.185791-.8588868-4.87323zm1.4785156 6.8271485c.7773438 0 1.5419922.2978516 2.2734375.8852539.4841995.391243 1.2151184.2457275 1.5107422-.3134766 1.3320313-2.5263672 3.1464844-3.9750977 4.9785156-3.9750977 1.5009766 0 2.6972656.9477539 3.4365234 1.7426758.3987179.4274921 1.0717373.4224892 1.4648438 0 .7392578-.7949219 1.9355469-1.7426758 3.4296875-1.7426758 1.9082031 0 3.7705078 1.5410156 5.1083984 4.2275391.2970581.5941143 1.0789566.7413464 1.5722656.2905273 1.1641273-1.0689068 2.5578308-1.4630814 3.9981079-.7637329.0291138.0144043.0544434.0328369.085022.0444336 2.0460815 1.0553589 3.7114258 4.1443481 4.2664795 8.1001587h-37.9316405c.6933593-4.8432617 3.1376953-8.4956054 5.8076171-8.4956054zm24.2949219 21.9252929h-22.274414c-5.6953125 0-10.3818359-5.0419922-10.828125-11.4296875h1.8798828 42.0498047c-.4462891 6.3876954-5.131836 11.4296875-10.8271485 11.4296875z" fill="#fff" data-original="#000000"/><path d="m46.3417969 35.5917244c-.5166016-.1875-1.0927734.0766602-1.2832031.5952148-1.1347656 3.1025391-3.6552734 5.1069336-6.4208984 5.1069336-.5527344 0-1 .4477539-1 1s.4472656 1 1 1c3.6142578 0 6.8720703-2.5200195 8.2998047-6.4194336.189453-.5185546-.0771485-1.0927734-.5957032-1.2827148z" fill="#fff" data-original="#000000"/><path d="m16.3632813 41.2938728c-2.765625 0-5.2871094-2.0043945-6.421875-5.1069336-.1904297-.519043-.765625-.7851563-1.2832031-.5952148-.5185548.1899414-.7851563.7641602-.5957032 1.2827148 1.4277344 3.8994141 4.6855469 6.4194336 8.3007813 6.4194336.5527344 0 1-.4477539 1-1s-.4472657-1-1-1z" fill="#fff" data-original="#000000"/><path d="m15.6621094 17.8231697c.4824219 0 .9072266-.3500977.9863281-.8413086.3388672-2.112792 2.4394531-3.5864248 4.7099609-3.2207022.5449219.0859375 1.0576172-.2836914 1.1455078-.8291016.0878906-.5449219-.2832031-1.0581055-.8291016-1.1455078-.3349609-.0537109-.6738281-.0810547-1.0078125-.0810547-3.0117188 0-5.5322266 2.0854492-5.9931641 4.9589834-.097988.6080743.3717138 1.1586915.9882814 1.1586915z" fill="#fff" data-original="#000000"/><path d="m14.4111328 26.4105721c-.5527344 0-1 .4477539-1 1v.3999023c0 .5522461.4472656 1 1 1s1-.4477539 1-1v-.3999023c0-.5522461-.4472656-1-1-1z" fill="#fff" data-original="#000000"/><path d="m21.8876953 24.8485603c-.5625-.0693359-1.0488281.3168945-1.1201172.8637695-.0703125.5478516.3164063 1.0493164.8642578 1.1196289.8183594.1054688 1.5917969.4819336 2.1777344 1.0600586.3949375.3890133 1.0277367.3823547 1.4140625-.0097656.3876953-.3930664.3837891-1.0263672-.0097656-1.4140625-.8955078-.8833007-2.0771484-1.4584961-3.3261719-1.6196289z" fill="#fff" data-original="#000000"/><path d="m31.6386719 24.3070564c-.3154297-.4541016-.9375-.5683594-1.3916016-.2529297-.4541016.3144531-.5673828.9375-.252943 1.3916016l1.2002087 1.7338867c.3130608.4515018.9348335.5685635 1.3916016.2529297.4541016-.3144531.5673828-.9375.2529297-1.3916016z" fill="#fff" data-original="#000000"/><path d="m40.8193359 27.2914314c-.1006927 0-2.3721771.0086746-2.2714844.0087891-.5527344.0019531-.9980469.4516602-.9960938 1.0039063.0019531.5507813.4492188.9960938 1 .9960938.1006927 0 2.3721771-.0086746 2.2714844-.0087891.5527344-.0019531.9980469-.4516602.9960938-1.0039063-.0019531-.5507813-.4492187-.9960938-1-.9960938z" fill="#fff" data-original="#000000"/></g></g></svg>